<svg aria-hidden="true" style="position: absolute; width: 0; height: 0; overflow: hidden;" version="1.1" xmlns="http://www.w3.org/2000/svg" xmlns:xlink="http://www.w3.org/1999/xlink">
<defs>
<symbol id="icon-icon-animation" viewBox="0 0 32 32">
<path d="M32.003 16.002c0 8.837-7.164 16.002-16.002 16.002s-16.002-7.164-16.002-16.002c0-8.837 7.164-16.002 16.002-16.002s16.002 7.164 16.002 16.002z"></path>
<path fill="#fff" style="fill: var(--color2, #fff)" d="M19.413 11.817c0.323-0.285 0.51-0.691 0.518-1.121 0-0.002 0-0.004 0-0.006 0-0.854-0.692-1.546-1.546-1.546-0.002 0-0.004 0-0.006 0h0c-0.361 0.010-0.69 0.138-0.952 0.347l0.003-0.002c-0.293 0.286-0.478 0.681-0.488 1.119l-0 0.002c0.007 0.843 0.693 1.524 1.537 1.524 0.353 0 0.678-0.119 0.938-0.319l-0.004 0.003zM14.412 12.076c0 0.029-0.029 0.029-0.057 0.057v0.029c-0.645 0.127-1.21 0.411-1.673 0.81l0.005-0.004c-0.287 0.27-0.547 0.569-0.776 0.891-0.575 0.805 0.776 1.581 1.323 0.776 0.718-1.007 1.609-1.294 2.587-0.977-0.325 0.548-0.842 1.517-1.34 2.499l-0.213 0.462c-0.633 1.236-1.983 2.214-3.307 1.466-0.122-0.079-0.271-0.126-0.431-0.126-0.443 0-0.801 0.359-0.801 0.801 0 0.283 0.146 0.531 0.367 0.674l0.003 0.002c0.555 0.322 1.221 0.512 1.931 0.512 1.227 0 2.322-0.567 3.037-1.453l0.006-0.007c0.029 0 0.087 0.029 0.114 0.029 0.857 0.357 1.661 0.831 2.387 1.409 0.345 0.287 0.949 1.752 1.293 2.501 0.134 0.26 0.401 0.434 0.709 0.434 0.19 0 0.364-0.066 0.5-0.177l-0.002 0.001c0.225-0.218 0.272-0.561 0.115-0.832-0.403-0.832-1.064-2.53-1.61-2.935-0.393-0.325-0.834-0.656-1.289-0.967l-0.062-0.040 0.057-0.057c-0.147-0.098-0.335-0.212-0.526-0.321l-0.049-0.025c0.489-0.92 0.978-1.81 1.495-2.702 1.206 0.381 2.523 0.109 3.479-0.719 0.295-0.263 0.556-0.562 0.776-0.892 0.546-0.718-0.517-1.437-1.15-0.949-0.035 0.032-0.064 0.071-0.086 0.113l-0.001 0.002c-0.278 0.423-0.671 0.751-1.134 0.943l-0.017 0.006c-0.029 0.029-0.057 0.029-0.057 0.057h-0.029c-0.23 0.082-0.495 0.129-0.771 0.129-0.483 0-0.933-0.145-1.307-0.393l0.009 0.005 0.058-0.058h0.029c-0.031-0.029-0.070-0.050-0.114-0.057l-0.001-0c-0.152-0.103-0.331-0.208-0.516-0.303l-0.030-0.014c-0.635-0.414-1.412-0.661-2.246-0.661-0.243 0-0.481 0.021-0.712 0.061l0.025-0.004 0.003 0.002z"></path>
</symbol>
<symbol id="icon-icon-business" viewBox="0 0 32 32">
<path fill="#000" style="fill: var(--color1, #000)" d="M32.003 16.002c0 8.837-7.164 16.002-16.002 16.002s-16.002-7.164-16.002-16.002c0-8.837 7.164-16.002 16.002-16.002s16.002 7.164 16.002 16.002z"></path>
<path fill="#fff" style="fill: var(--color2, #fff)" d="M20.002 12.573h-1.143c0-1.577-1.28-2.857-2.857-2.857s-2.857 1.28-2.857 2.857h-1.143c-0.629 0-1.137 0.514-1.137 1.143l-0.006 6.858c0 0.629 0.514 1.143 1.143 1.143h8.001c0.629 0 1.143-0.514 1.143-1.143v-6.858c0-0.629-0.514-1.143-1.143-1.143zM16.002 10.858c0.949 0 1.714 0.766 1.714 1.714h-3.429c0-0.949 0.766-1.714 1.714-1.714zM16.002 16.573c-1.577 0-2.857-1.28-2.857-2.857h1.143c0 0.949 0.766 1.714 1.714 1.714s1.714-0.766 1.714-1.714h1.143c0 1.577-1.28 2.857-2.857 2.857z"></path>
</symbol>
<symbol id="icon-icon-crypto" viewBox="0 0 32 32">
<path fill="#000" style="fill: var(--color1, #000)" d="M32.003 16.002c0 8.837-7.164 16.002-16.002 16.002s-16.002-7.164-16.002-16.002c0-8.837 7.164-16.002 16.002-16.002s16.002 7.164 16.002 16.002z"></path>
<path fill="#fff" style="fill: var(--color2, #fff)" d="M14.859 16.002c-0.629 0-1.143 0.514-1.143 1.143s0.514 1.143 1.143 1.143 1.143-0.514 1.143-1.143-0.514-1.143-1.143-1.143zM12.573 13.716c-0.629 0-1.143 0.514-1.143 1.143s0.514 1.143 1.143 1.143 1.143-0.514 1.143-1.143-0.514-1.143-1.143-1.143zM12.573 18.288c-0.629 0-1.143 0.514-1.143 1.143s0.514 1.143 1.143 1.143 1.143-0.514 1.143-1.143-0.514-1.143-1.143-1.143zM19.431 13.716c0.629 0 1.143-0.514 1.143-1.143s-0.514-1.143-1.143-1.143-1.143 0.514-1.143 1.143 0.514 1.143 1.143 1.143zM17.145 18.288c-0.629 0-1.143 0.514-1.143 1.143s0.514 1.143 1.143 1.143 1.143-0.514 1.143-1.143-0.514-1.143-1.143-1.143zM19.431 16.002c-0.629 0-1.143 0.514-1.143 1.143s0.514 1.143 1.143 1.143 1.143-0.514 1.143-1.143-0.514-1.143-1.143-1.143zM17.145 13.716c-0.629 0-1.143 0.514-1.143 1.143s0.514 1.143 1.143 1.143 1.143-0.514 1.143-1.143-0.514-1.143-1.143-1.143zM14.859 11.43c-0.629 0-1.143 0.514-1.143 1.143s0.514 1.143 1.143 1.143 1.143-0.514 1.143-1.143-0.514-1.143-1.143-1.143z"></path>
</symbol>
<symbol id="icon-icon-design" viewBox="0 0 32 32">
<path fill="#000" style="fill: var(--color1, #000)" d="M32.003 16.002c0 8.837-7.164 16.002-16.002 16.002s-16.002-7.164-16.002-16.002c0-8.837 7.164-16.002 16.002-16.002s16.002 7.164 16.002 16.002z"></path>
<path fill="#fff" style="fill: var(--color2, #fff)" d="M20.002 10.858h-8.001c-0.629 0-1.143 0.514-1.143 1.143v8.001c0 0.629 0.514 1.143 1.143 1.143h8.001c0.629 0 1.143-0.514 1.143-1.143v-8.001c0-0.629-0.514-1.143-1.143-1.143zM20.002 20.002l-4-4.572v4.572h-4l4-4.572v-3.429h4v8.001z"></path>
</symbol>
<symbol id="icon-icon-photography" viewBox="0 0 32 32">
<path fill="#000" style="fill: var(--color1, #000)" d="M32.003 16.002c0 8.837-7.164 16.002-16.002 16.002s-16.002-7.164-16.002-16.002c0-8.837 7.164-16.002 16.002-16.002s16.002 7.164 16.002 16.002z"></path>
<path fill="#fff" style="fill: var(--color2, #fff)" d="M17.716 10.287l1.046 1.143h1.812c0.629 0 1.143 0.514 1.143 1.143v6.858c0 0.629-0.514 1.143-1.143 1.143h-9.144c-0.629 0-1.143-0.514-1.143-1.143v-6.858c0-0.629 0.514-1.143 1.143-1.143h1.812l1.046-1.143h3.429zM16.002 13.144c-1.577 0-2.857 1.28-2.857 2.857s1.28 2.857 2.857 2.857 2.857-1.28 2.857-2.857-1.28-2.857-2.857-2.857zM16.002 14.173c1.010 0 1.829 0.819 1.829 1.829s-0.819 1.829-1.829 1.829v0c-1.010 0-1.829-0.819-1.829-1.829s0.819-1.829 1.829-1.829v0z"></path>
</symbol>
</defs>
</svg>
